<svg width="756.15" height="121.051" viewBox="0 0 756.15 121.051" xmlns="http://www.w3.org/2000/svg">
	<g id="svgGroup" stroke-linecap="round" fill-rule="evenodd" font-size="9pt" stroke="#000" stroke-width="0.25mm" fill="none" style="stroke:#000;stroke-width:0.25mm;fill:none">
		<path d="M 7.859 119.967 A 30.492 30.492 0 0 0 16.05 121.051 A 53.475 53.475 0 0 0 20.005 120.904 A 57.504 57.504 0 0 0 36.975 116.926 Q 47.4 112.801 56.55 105.376 Q 65.7 97.951 72.825 87.976 Q 79.95 78.001 84 66.076 Q 88.05 54.151 88.05 41.101 A 64.601 64.601 0 0 0 87.607 33.426 A 51.396 51.396 0 0 0 84.3 20.251 Q 80.55 10.951 72.375 5.476 A 27.55 27.55 0 0 0 67.98 3.091 Q 64.108 1.415 59.352 0.648 A 54.411 54.411 0 0 0 50.7 0.001 A 65.426 65.426 0 0 0 48.909 0.025 A 57.846 57.846 0 0 0 32.55 2.776 A 66.33 66.33 0 0 0 27.28 4.73 A 54.392 54.392 0 0 0 17.475 10.051 A 46.721 46.721 0 0 0 12.147 14.298 A 34.175 34.175 0 0 0 7.275 19.876 A 23.237 23.237 0 0 0 4.93 24.107 A 16.36 16.36 0 0 0 3.6 30.451 A 11.363 11.363 0 0 0 3.614 31.01 A 8.938 8.938 0 0 0 5.625 36.376 Q 7.112 38.193 10.177 38.676 A 15.614 15.614 0 0 0 12.6 38.851 Q 12.3 37.801 12.075 36.451 Q 11.948 35.689 11.893 34.783 A 24.364 24.364 0 0 1 11.85 33.301 Q 11.85 25.051 16.35 18.451 A 29.798 29.798 0 0 1 20.369 13.706 A 33.571 33.571 0 0 1 28.65 7.951 A 35.613 35.613 0 0 1 35.848 5.285 A 41.996 41.996 0 0 1 46.2 4.051 A 39.793 39.793 0 0 1 51.962 4.454 A 30.642 30.642 0 0 1 62.25 7.801 Q 69.15 11.551 73.05 19.426 A 31.284 31.284 0 0 1 74.622 23.229 Q 76.95 30.064 76.95 39.451 A 80.012 80.012 0 0 1 73.725 61.726 Q 70.5 72.901 64.65 82.876 A 96.664 96.664 0 0 1 64.283 83.497 A 87.162 87.162 0 0 1 51.075 100.576 A 72.064 72.064 0 0 1 47.887 103.578 A 61.533 61.533 0 0 1 34.425 112.726 Q 25.5 117.151 15.9 117.151 Q 14.4 117.151 12.975 117.001 Q 11.55 116.851 9.45 116.551 Q 11.85 105.751 15.45 92.551 A 693.758 693.758 0 0 1 16.362 89.24 A 760.508 760.508 0 0 1 23.4 65.476 Q 27.75 51.601 32.475 38.551 Q 37.2 25.501 41.85 14.701 A 9.039 9.039 0 0 0 40.209 13.758 A 6.368 6.368 0 0 0 37.65 13.201 Q 35.4 13.201 33.45 14.926 A 17.183 17.183 0 0 0 32.496 15.838 A 19.269 19.269 0 0 0 30 19.051 A 44.805 44.805 0 0 0 29.192 20.395 A 38.295 38.295 0 0 0 27.45 23.776 Q 26.663 25.519 26.213 26.63 A 27.842 27.842 0 0 0 25.95 27.301 Q 24.9 30.151 22.95 35.701 A 429.312 429.312 0 0 0 22.393 37.297 Q 20.663 42.284 18.6 48.601 A 984.614 984.614 0 0 0 16.144 56.232 A 1210.031 1210.031 0 0 0 13.575 64.426 Q 10.95 72.901 8.4 81.676 A 708.166 708.166 0 0 0 8.083 82.771 A 647.578 647.578 0 0 0 3.675 98.776 A 359.071 359.071 0 0 0 1.669 106.819 A 283.807 283.807 0 0 0 0 114.301 A 17.341 17.341 0 0 0 1.89 116.54 A 12.729 12.729 0 0 0 7.2 119.776 A 28.579 28.579 0 0 0 7.859 119.967 Z" id="0" vector-effect="non-scaling-stroke"/>
		<path d="M 145.35 84.151 L 147.15 85.651 A 24.662 24.662 0 0 1 144.49 90.444 A 17.067 17.067 0 0 1 138.675 95.626 Q 133.497 98.392 128.788 98.542 A 16.906 16.906 0 0 1 128.25 98.551 A 18.442 18.442 0 0 1 124.726 98.221 A 17.063 17.063 0 0 1 124.5 98.176 Q 122.7 97.801 121.05 97.051 A 59.003 59.003 0 0 1 114.115 104.776 A 50.053 50.053 0 0 1 109.875 108.301 Q 103.8 112.801 98.1 112.801 Q 93.905 112.801 91.296 111.119 A 8.143 8.143 0 0 1 88.95 108.826 A 15.384 15.384 0 0 1 86.555 102.786 A 20.826 20.826 0 0 1 86.25 99.151 A 31.639 31.639 0 0 1 87.059 92.159 A 37.589 37.589 0 0 1 87.75 89.551 Q 89.25 84.601 91.725 80.251 Q 94.2 75.901 97.275 73.201 Q 99.751 71.027 102.275 70.603 A 7.389 7.389 0 0 1 103.5 70.501 A 5.593 5.593 0 0 1 104.517 70.598 A 6.858 6.858 0 0 1 105.075 70.726 A 14.613 14.613 0 0 1 106.556 71.214 A 13.441 13.441 0 0 1 106.65 71.251 A 8.254 8.254 0 0 0 105.849 72.086 Q 105.046 73.035 104.092 74.566 A 42.399 42.399 0 0 0 103.425 75.676 A 49.93 49.93 0 0 0 101.4 79.559 A 64.9 64.9 0 0 0 99.9 83.026 Q 98.25 87.151 97.125 91.201 A 38.237 38.237 0 0 0 96.462 93.957 Q 96.202 95.261 96.088 96.409 A 17.216 17.216 0 0 0 96 98.101 A 21.416 21.416 0 0 0 96.112 100.377 Q 96.359 102.678 97.15 104.083 A 5.173 5.173 0 0 0 97.5 104.626 A 5.271 5.271 0 0 0 98.838 105.918 A 4.568 4.568 0 0 0 101.4 106.651 A 7.511 7.511 0 0 0 103.763 106.234 Q 105.767 105.568 108.149 103.84 A 29.204 29.204 0 0 0 108.9 103.276 A 44.945 44.945 0 0 0 113.48 99.161 A 60.788 60.788 0 0 0 117.45 94.651 A 21.755 21.755 0 0 1 112.118 88.093 A 26.912 26.912 0 0 1 110.925 85.576 Q 108.6 79.951 108.6 74.101 A 25.171 25.171 0 0 1 110.017 65.622 A 23.96 23.96 0 0 1 110.325 64.801 A 17.791 17.791 0 0 1 112.761 60.456 A 15.275 15.275 0 0 1 115.35 57.826 Q 118.65 55.201 123.3 55.201 Q 129.45 55.201 131.55 58.501 Q 133.562 61.663 133.646 66.34 A 22.855 22.855 0 0 1 133.65 66.751 A 28.431 28.431 0 0 1 133.024 72.515 Q 132.469 75.191 131.424 78.087 A 51.516 51.516 0 0 1 130.8 79.726 Q 127.95 86.851 123.6 93.451 Q 126.3 94.951 129.3 94.951 Q 131.7 94.951 134.7 93.976 A 16.358 16.358 0 0 0 138.144 92.372 A 21.715 21.715 0 0 0 140.625 90.601 A 15.794 15.794 0 0 0 143.945 86.794 A 20.531 20.531 0 0 0 145.35 84.151 Z M 120.15 90.751 Q 123.9 85.201 126.375 79.126 A 35.921 35.921 0 0 0 128.151 73.579 A 26.603 26.603 0 0 0 128.85 67.651 A 23.605 23.605 0 0 0 128.752 65.417 Q 128.54 63.192 127.868 61.806 A 5.475 5.475 0 0 0 127.575 61.276 A 5.446 5.446 0 0 0 126.758 60.252 A 3.363 3.363 0 0 0 124.35 59.251 Q 121.6 59.251 118.724 62.906 A 21.813 21.813 0 0 0 118.2 63.601 A 16.097 16.097 0 0 0 115.531 69.738 A 22.873 22.873 0 0 0 115.05 74.551 Q 115.05 78.901 116.325 83.326 A 22.413 22.413 0 0 0 117.919 87.394 A 17.607 17.607 0 0 0 120.15 90.751 Z" id="1" vector-effect="non-scaling-stroke"/>
		<path d="M 195.45 83.701 L 197.25 85.051 A 58.049 58.049 0 0 1 190.305 96.748 A 51.81 51.81 0 0 1 186.975 100.651 A 52.079 52.079 0 0 1 178.784 107.758 A 44.603 44.603 0 0 1 173.475 110.926 Q 166.2 114.601 158.7 114.601 Q 152.204 114.601 148.014 112.068 A 13.598 13.598 0 0 1 144.975 109.576 A 17.436 17.436 0 0 1 140.434 98.447 A 22.695 22.695 0 0 1 140.4 97.201 A 30.552 30.552 0 0 1 141.468 89.37 A 41.63 41.63 0 0 1 143.775 82.951 Q 147.15 75.451 152.775 68.851 A 54.06 54.06 0 0 1 161.041 60.946 A 47.525 47.525 0 0 1 165.15 58.126 Q 171.9 54.001 178.5 54.001 Q 181.95 54.001 184.875 55.801 A 5.367 5.367 0 0 1 186.974 58.312 Q 187.8 60.202 187.8 63.151 A 18.796 18.796 0 0 1 184.684 73.482 A 22.77 22.77 0 0 1 184.425 73.876 A 33.468 33.468 0 0 1 178.181 80.78 A 39.997 39.997 0 0 1 175.575 82.801 Q 170.1 86.701 163.575 89.176 A 50.525 50.525 0 0 1 153.223 91.93 A 45.717 45.717 0 0 1 150.6 92.251 A 35.65 35.65 0 0 0 150.284 94.067 A 29.812 29.812 0 0 0 150.15 95.101 Q 150 96.451 150 97.651 A 19.745 19.745 0 0 0 150.525 102.151 Q 151.05 104.401 152.4 106.276 A 8.68 8.68 0 0 0 155.237 108.778 A 10.652 10.652 0 0 0 156.075 109.201 A 10.947 10.947 0 0 0 158.413 109.937 Q 159.527 110.162 160.815 110.226 A 21.026 21.026 0 0 0 161.85 110.251 A 23.856 23.856 0 0 0 171.441 108.184 A 30.091 30.091 0 0 0 174.6 106.576 A 47.116 47.116 0 0 0 183.544 99.755 A 55.694 55.694 0 0 0 186.3 96.901 Q 191.7 90.901 195.45 83.701 Z M 151.35 89.401 A 51.036 51.036 0 0 0 155.024 88.005 Q 157.591 86.923 160.5 85.426 Q 165.6 82.801 170.325 79.201 A 38.832 38.832 0 0 0 175.759 74.217 A 33.158 33.158 0 0 0 178.125 71.251 A 17.218 17.218 0 0 0 180.455 66.717 A 14.615 14.615 0 0 0 181.2 62.101 A 7.315 7.315 0 0 0 181.141 61.143 Q 181.077 60.656 180.942 60.258 A 3.023 3.023 0 0 0 180.6 59.551 Q 180 58.651 178.05 58.651 A 10.79 10.79 0 0 0 174.457 59.302 Q 173.042 59.8 171.565 60.679 A 21.745 21.745 0 0 0 170.4 61.426 A 34.649 34.649 0 0 0 165.939 65.093 A 45.356 45.356 0 0 0 162.6 68.701 A 63.834 63.834 0 0 0 155.862 78.58 A 66.895 66.895 0 0 0 155.85 78.601 A 51.92 51.92 0 0 0 152.434 86.026 A 45.064 45.064 0 0 0 151.35 89.401 Z" id="2" vector-effect="non-scaling-stroke"/>
		<path d="M 213.9 60.751 L 213.9 58.951 A 26.263 26.263 0 0 1 214.017 56.377 Q 214.289 53.629 215.19 51.963 A 5.817 5.817 0 0 1 215.775 51.076 Q 216.945 49.625 218.202 49.08 A 3.854 3.854 0 0 1 219.75 48.751 A 3.825 3.825 0 0 1 220.426 48.806 Q 221.133 48.934 221.55 49.351 A 2.211 2.211 0 0 1 221.938 49.863 A 1.739 1.739 0 0 1 222.15 50.701 Q 222.15 51.451 221.7 53.101 A 11.121 11.121 0 0 0 221.426 54.465 Q 221.25 55.707 221.25 57.301 A 29.097 29.097 0 0 0 221.8 62.793 A 39.984 39.984 0 0 0 223.2 68.026 Q 225.15 73.801 227.1 80.176 Q 229.05 86.551 229.05 93.451 Q 229.05 95.401 228.825 97.276 A 25.527 25.527 0 0 1 228.385 99.855 A 22.029 22.029 0 0 1 228.15 100.801 A 20.091 20.091 0 0 0 235.688 97.805 A 25.283 25.283 0 0 0 238.05 96.076 Q 242.7 92.251 247.05 83.851 L 248.4 85.351 A 31.646 31.646 0 0 1 245.614 91.398 A 22.548 22.548 0 0 1 239.85 97.876 Q 234.15 102.151 227.4 103.201 A 20.551 20.551 0 0 1 224.825 108.107 A 16.057 16.057 0 0 1 219.825 112.651 A 22.431 22.431 0 0 1 209.497 115.62 A 26.934 26.934 0 0 1 208.2 115.651 Q 202.904 115.651 199.259 113.916 A 13.262 13.262 0 0 1 197.025 112.576 A 17.554 17.554 0 0 1 192.685 107.989 A 16.323 16.323 0 0 1 191.175 105.001 A 25.547 25.547 0 0 1 189.533 97.969 A 23.55 23.55 0 0 1 189.45 96.001 A 27.263 27.263 0 0 1 189.556 93.514 Q 189.786 91.004 190.52 89.374 A 7.463 7.463 0 0 1 190.65 89.101 A 11.883 11.883 0 0 1 191.712 87.349 Q 192.551 86.213 193.575 85.501 A 18.557 18.557 0 0 1 195.159 84.508 Q 196.038 84.019 196.875 83.701 A 13.27 13.27 0 0 0 197.602 83.401 Q 198.343 83.066 198.782 82.732 A 2.639 2.639 0 0 0 199.05 82.501 Q 203.55 77.551 207.3 72.151 Q 211.05 66.751 213.9 60.751 Z M 218.7 100.651 A 29.176 29.176 0 0 0 219.088 98.114 A 32.924 32.924 0 0 0 219.15 97.501 A 32.649 32.649 0 0 0 219.241 96.179 Q 219.3 95.007 219.3 93.601 Q 219.3 86.551 217.575 79.576 Q 215.85 72.601 214.65 66.451 Q 211.2 72.151 207.375 77.326 Q 203.55 82.501 200.1 85.951 Q 202.35 90.751 207.075 94.951 A 24.21 24.21 0 0 0 215.785 99.865 A 30.023 30.023 0 0 0 218.7 100.651 Z M 208.5 110.401 A 7.361 7.361 0 0 0 209.742 110.284 Q 211.238 110.026 213.3 109.201 Q 216.274 108.011 217.921 103.136 A 21.877 21.877 0 0 0 217.95 103.051 Q 211.65 101.851 206.775 98.101 A 41.807 41.807 0 0 1 203.467 95.288 Q 201.925 93.823 200.761 92.359 A 21.188 21.188 0 0 1 199.5 90.601 Q 196.268 90.748 196.201 95.644 A 15.297 15.297 0 0 0 196.2 95.851 Q 196.2 101.251 199.425 105.826 A 10.248 10.248 0 0 0 206.821 110.3 A 13.598 13.598 0 0 0 208.5 110.401 Z" id="3" vector-effect="non-scaling-stroke"/>
		<path d="M 322.2 83.701 L 323.55 85.201 A 55.301 55.301 0 0 1 319.476 94.528 Q 315.943 100.85 311.025 105.001 Q 302.85 111.901 294 111.901 A 14.773 14.773 0 0 1 290.637 111.542 Q 287.259 110.752 285.3 108.226 A 13.523 13.523 0 0 1 282.572 101.407 A 17.696 17.696 0 0 1 282.45 99.301 Q 282.45 95.851 283.725 90.601 A 97.295 97.295 0 0 1 285.641 83.833 A 118.004 118.004 0 0 1 287.1 79.576 A 80.121 80.121 0 0 1 291.631 69.341 A 73.965 73.965 0 0 1 291.975 68.701 Q 294.457 64.139 297.24 61.077 A 26.753 26.753 0 0 1 297.9 60.376 A 15.003 15.003 0 0 1 299.709 58.781 Q 300.735 58.023 301.746 57.618 A 6.152 6.152 0 0 1 304.05 57.151 A 3.689 3.689 0 0 1 305.414 57.397 A 3.423 3.423 0 0 1 306.375 57.976 Q 307.304 58.761 307.348 60.295 A 5.389 5.389 0 0 1 307.35 60.451 A 4.425 4.425 0 0 1 307.205 61.491 Q 306.769 63.263 305.025 66.301 A 449.661 449.661 0 0 1 302.833 70.074 Q 301.322 72.648 299.55 75.601 Q 296.4 80.851 294.075 86.626 Q 291.75 92.401 291.75 97.651 Q 291.75 101.63 292.727 103.654 A 4.344 4.344 0 0 0 293.55 104.851 A 5.544 5.544 0 0 0 295.666 106.143 Q 297.108 106.651 299.1 106.651 A 11.963 11.963 0 0 0 303.671 105.683 Q 305.431 104.958 307.263 103.69 A 29.344 29.344 0 0 0 309.975 101.551 A 31.223 31.223 0 0 0 313.604 97.675 Q 317.068 93.355 320.758 86.471 A 131.512 131.512 0 0 0 322.2 83.701 Z M 309.286 42.761 A 8.181 8.181 0 0 0 312 43.201 A 9.413 9.413 0 0 0 315.806 42.404 A 11.543 11.543 0 0 0 318.675 40.576 A 13.174 13.174 0 0 0 319.614 39.695 Q 320.428 38.849 320.932 37.98 A 5.676 5.676 0 0 0 321.75 35.101 Q 321.75 33.806 321.402 32.898 A 3.151 3.151 0 0 0 320.4 31.501 Q 319.53 30.824 318.286 30.583 A 7.83 7.83 0 0 0 316.8 30.451 Q 313.2 30.451 309.525 32.776 A 12.794 12.794 0 0 0 308.733 33.318 Q 307.783 34.024 307.146 34.801 A 5.324 5.324 0 0 0 305.85 38.251 A 6.041 6.041 0 0 0 305.911 39.124 A 3.921 3.921 0 0 0 307.725 42.001 A 7.426 7.426 0 0 0 309.286 42.761 Z" id="5" vector-effect="non-scaling-stroke"/>
		<path d="M 322.05 62.701 L 322.05 60.001 A 64 64 0 0 0 323.013 60.113 Q 323.441 60.16 323.913 60.207 A 118.326 118.326 0 0 0 324.9 60.301 A 161.902 161.902 0 0 0 326.546 60.441 Q 327.411 60.511 328.373 60.581 A 270.668 270.668 0 0 0 328.65 60.601 Q 331.8 52.501 335.4 44.926 Q 339 37.351 342.525 31.426 A 81.423 81.423 0 0 1 345.127 27.319 Q 346.426 25.406 347.682 23.84 A 37.882 37.882 0 0 1 349.275 21.976 A 21.456 21.456 0 0 1 350.733 20.517 Q 352.239 19.161 353.498 18.695 A 3.609 3.609 0 0 1 354.75 18.451 A 3.261 3.261 0 0 1 356.833 19.2 A 4.128 4.128 0 0 1 356.925 19.276 Q 357.854 20.061 357.898 21.595 A 5.389 5.389 0 0 1 357.9 21.751 Q 357.9 24.116 355.19 29.255 A 65.909 65.909 0 0 1 354.75 30.076 Q 352.584 34.046 349.71 39.044 A 751.675 751.675 0 0 1 346.95 43.801 A 201.962 201.962 0 0 0 340.698 55.37 A 237.638 237.638 0 0 0 337.95 61.051 L 340.725 61.051 L 343.5 61.051 A 353.357 353.357 0 0 0 348.581 61.013 A 411.243 411.243 0 0 0 353.925 60.901 Q 359.4 60.751 364.95 60.151 L 364.95 62.851 Q 357.248 63.691 351.049 64.139 A 266.035 266.035 0 0 1 350.175 64.201 Q 344.568 64.587 340.013 64.642 A 122.546 122.546 0 0 1 338.55 64.651 L 337.425 64.651 L 336.3 64.651 Q 332.85 72.601 330.45 81.001 A 61.969 61.969 0 0 0 328.262 92.591 A 54.192 54.192 0 0 0 328.05 97.351 A 33.757 33.757 0 0 0 328.188 100.518 Q 328.568 104.538 330 106.576 Q 331.806 109.145 335.798 109.336 A 13.707 13.707 0 0 0 336.45 109.351 A 18.97 18.97 0 0 0 345.13 107.168 Q 348.469 105.469 351.75 102.451 Q 359.25 95.551 364.95 83.701 L 366.9 85.201 Q 363.3 93.601 357.825 100.351 Q 352.35 107.101 345.75 111.001 A 28.046 28.046 0 0 1 337.593 114.294 A 25.065 25.065 0 0 1 332.1 114.901 A 17.799 17.799 0 0 1 328.19 114.497 Q 325.45 113.88 323.464 112.321 A 10.665 10.665 0 0 1 322.2 111.151 Q 318.75 107.401 318.75 100.051 Q 318.75 93.451 321.225 83.776 A 198.289 198.289 0 0 1 325.655 68.968 A 225.236 225.236 0 0 1 327.45 63.901 A 97.858 97.858 0 0 0 325.988 63.619 A 82.823 82.823 0 0 0 324.6 63.376 A 13.79 13.79 0 0 1 322.352 62.81 A 12.591 12.591 0 0 1 322.05 62.701 Z" id="6" vector-effect="non-scaling-stroke"/>
		<path d="M 500.85 83.701 L 502.65 85.801 A 76.939 76.939 0 0 1 497.639 96.379 A 86.617 86.617 0 0 1 496.5 98.326 A 41.636 41.636 0 0 1 491.597 104.951 A 34.957 34.957 0 0 1 487.725 108.601 A 18.488 18.488 0 0 1 482.132 111.753 A 16.581 16.581 0 0 1 476.7 112.651 A 13.5 13.5 0 0 1 473.834 112.366 Q 472.044 111.977 470.725 111.055 A 7.264 7.264 0 0 1 469.05 109.426 A 12.108 12.108 0 0 1 466.738 103.377 A 15.612 15.612 0 0 1 466.65 101.701 A 25.097 25.097 0 0 1 466.65 101.642 A 25.996 25.996 0 0 1 467.775 94.201 Q 468.9 90.451 470.025 86.851 A 28.194 28.194 0 0 0 470.753 84.05 Q 471.15 82.093 471.15 80.401 A 10.454 10.454 0 0 0 471.055 78.934 Q 470.816 77.258 469.982 76.377 A 2.951 2.951 0 0 0 469.8 76.201 A 4.918 4.918 0 0 0 468.468 75.339 A 4.199 4.199 0 0 0 466.8 75.001 A 5.94 5.94 0 0 0 464.049 75.74 Q 461.477 77.08 458.625 80.851 Q 454.628 86.135 448.489 95.336 A 665.156 665.156 0 0 0 447.15 97.351 A 51.019 51.019 0 0 0 443.634 103.479 A 46.047 46.047 0 0 0 443.1 104.626 Q 441.45 108.301 439.95 111.301 A 12.441 12.441 0 0 1 439.01 111.262 Q 438.557 111.227 438.042 111.162 A 28.367 28.367 0 0 1 436.95 111.001 A 13.445 13.445 0 0 1 435.044 110.545 A 10.797 10.797 0 0 1 433.725 110.026 Q 432.976 109.671 432.621 109.213 A 1.454 1.454 0 0 1 432.3 108.301 A 3.371 3.371 0 0 1 432.363 107.728 Q 432.601 106.412 433.725 103.276 A 1339.353 1339.353 0 0 0 434.857 100.105 Q 435.355 98.704 435.897 97.172 A 2361.81 2361.81 0 0 0 437.025 93.976 Q 438.9 88.651 440.325 83.176 Q 441.384 79.108 441.656 75.91 A 24.917 24.917 0 0 0 441.75 73.801 Q 441.75 71.251 440.925 69.676 A 2.785 2.785 0 0 0 438.914 68.187 A 4.555 4.555 0 0 0 438 68.101 Q 435.088 68.101 431.126 71.195 A 31.411 31.411 0 0 0 430.05 72.076 A 53.952 53.952 0 0 0 425.924 76.028 Q 423.234 78.873 420.45 82.501 A 122.366 122.366 0 0 0 413.32 92.893 A 140.453 140.453 0 0 0 411.075 96.676 A 97.313 97.313 0 0 0 405.506 107.981 A 84.906 84.906 0 0 0 403.95 112.051 A 10.341 10.341 0 0 1 402.853 111.987 Q 402.299 111.928 401.672 111.813 A 22.855 22.855 0 0 1 400.65 111.601 Q 398.765 111.166 397.37 110.45 A 10.271 10.271 0 0 1 397.275 110.401 Q 396.296 109.885 395.99 109.37 A 0.912 0.912 0 0 1 395.85 108.901 A 2.639 2.639 0 0 1 395.905 108.439 Q 396.128 107.264 397.243 104.09 A 135.722 135.722 0 0 1 397.425 103.576 A 303.705 303.705 0 0 0 398.67 100.004 Q 399.759 96.816 401.025 92.926 Q 403.05 86.701 404.625 80.251 A 63.272 63.272 0 0 0 405.645 75.258 Q 406.044 72.765 406.156 70.546 A 33.57 33.57 0 0 0 406.2 68.851 A 6.203 6.203 0 0 1 406.943 68.129 Q 407.764 67.445 409.03 66.761 A 19.643 19.643 0 0 1 409.05 66.751 A 8.537 8.537 0 0 1 412.383 65.732 A 8.273 8.273 0 0 1 413.1 65.701 Q 415.2 65.701 416.175 66.751 A 3.519 3.519 0 0 1 417.01 68.344 Q 417.141 68.883 417.149 69.516 A 6.549 6.549 0 0 1 417.15 69.601 A 11.051 11.051 0 0 1 417.08 70.749 Q 416.878 72.641 416.101 75.955 A 101.247 101.247 0 0 1 416.025 76.276 A 194.446 194.446 0 0 1 414.769 81.244 A 262.444 262.444 0 0 1 413.25 86.701 A 123.741 123.741 0 0 1 417.765 79.994 A 145.775 145.775 0 0 1 420.075 76.876 Q 423.9 71.851 428.1 67.651 A 52.523 52.523 0 0 1 432.584 63.633 A 40.715 40.715 0 0 1 436.575 60.826 Q 440.85 58.201 444.9 58.201 A 9.907 9.907 0 0 1 447.284 58.468 A 5.84 5.84 0 0 1 451.275 61.576 A 15.254 15.254 0 0 1 452.67 65.776 A 21.084 21.084 0 0 1 453 69.601 A 38.065 38.065 0 0 1 452.61 74.934 A 45.398 45.398 0 0 1 452.175 77.476 Q 451.35 81.601 450.3 85.126 A 85.412 85.412 0 0 1 449.658 87.19 Q 448.969 89.307 448.35 90.751 Q 451.5 85.051 455.325 79.726 A 44.177 44.177 0 0 1 459.71 74.485 A 35.07 35.07 0 0 1 463.65 71.026 A 17.333 17.333 0 0 1 468.3 68.494 A 14.819 14.819 0 0 1 473.25 67.651 Q 478.05 67.651 479.925 70.501 A 11.334 11.334 0 0 1 481.668 75.253 A 14.654 14.654 0 0 1 481.8 77.251 Q 481.8 81.029 480.533 85.511 A 42.666 42.666 0 0 1 480.45 85.801 A 277.776 277.776 0 0 1 477.764 94.529 A 255.323 255.323 0 0 1 477.675 94.801 A 35.317 35.317 0 0 0 476.835 97.772 Q 476.25 100.283 476.25 102.301 A 6.687 6.687 0 0 0 476.798 105.015 A 6.482 6.482 0 0 0 477.225 105.826 A 3.091 3.091 0 0 0 478.938 107.141 Q 479.714 107.401 480.75 107.401 A 9.486 9.486 0 0 0 485.855 105.869 Q 487.187 105.036 488.456 103.749 A 18.293 18.293 0 0 0 488.625 103.576 A 42.465 42.465 0 0 0 492.593 98.751 A 55.352 55.352 0 0 0 495.45 94.276 A 119.826 119.826 0 0 0 499.036 87.578 A 99.289 99.289 0 0 0 500.85 83.701 Z" id="8" vector-effect="non-scaling-stroke"/>
		<path d="M 566.4 83.701 L 567.9 85.201 A 55.93 55.93 0 0 1 562.718 95.417 A 48.822 48.822 0 0 1 559.8 99.451 Q 554.85 105.601 549.225 109.051 A 25.71 25.71 0 0 1 544.519 111.348 A 18.536 18.536 0 0 1 538.2 112.501 Q 532.65 112.501 530.025 109.201 A 12.242 12.242 0 0 1 527.996 105.582 A 10.87 10.87 0 0 1 527.4 102.001 A 12.904 12.904 0 0 1 527.435 101.076 Q 527.473 100.556 527.55 99.976 Q 527.7 98.851 527.85 97.651 A 115.492 115.492 0 0 1 523.929 102.663 Q 521.836 105.182 519.877 107.188 A 46.387 46.387 0 0 1 516.075 110.701 A 22.03 22.03 0 0 1 512.05 113.352 Q 508.669 115.051 505.2 115.051 Q 500.55 115.051 497.325 111.976 Q 494.646 109.421 494.192 104.64 A 21.621 21.621 0 0 1 494.1 102.601 A 27.973 27.973 0 0 1 494.777 96.63 Q 495.366 93.936 496.465 91.067 A 45.704 45.704 0 0 1 496.5 90.976 A 56.697 56.697 0 0 1 501.083 81.77 A 66.566 66.566 0 0 1 503.1 78.676 Q 507.3 72.601 512.625 67.576 A 50.324 50.324 0 0 1 520.23 61.623 A 43.782 43.782 0 0 1 523.875 59.551 A 28.614 28.614 0 0 1 530.149 57.21 A 23.599 23.599 0 0 1 535.65 56.551 Q 541.5 56.551 545.4 59.626 Q 549.3 62.701 549.3 67.801 Q 549.3 69.924 548.651 71.277 A 3.955 3.955 0 0 1 547.275 72.901 Q 545.25 74.251 541.95 74.251 A 27.486 27.486 0 0 0 542.264 72.83 A 34.599 34.599 0 0 0 542.475 71.626 A 19.426 19.426 0 0 0 542.644 70.257 A 14.729 14.729 0 0 0 542.7 69.001 Q 542.7 65.551 541.05 63.076 Q 539.578 60.868 536.196 60.63 A 12.045 12.045 0 0 0 535.35 60.601 Q 531.261 60.601 527.029 63.374 A 23.142 23.142 0 0 0 526.8 63.526 Q 522.45 66.451 518.4 71.326 Q 514.35 76.201 511.2 81.901 A 67.975 67.975 0 0 0 507.577 89.492 A 57.751 57.751 0 0 0 506.25 93.151 A 42.411 42.411 0 0 0 505.085 97.462 Q 504.628 99.623 504.5 101.564 A 22.553 22.553 0 0 0 504.45 103.051 Q 504.45 108.901 508.5 108.901 A 8.732 8.732 0 0 0 511.518 108.327 Q 513.659 107.54 516 105.676 Q 520.05 102.451 524.325 97.426 Q 528.6 92.401 532.5 87.001 Q 536.4 81.601 539.4 77.101 Q 540 76.201 540.15 76.201 Q 541.05 76.351 542.475 76.801 A 9.699 9.699 0 0 1 543.95 77.397 A 7.78 7.78 0 0 1 544.95 78.001 A 2.713 2.713 0 0 1 545.59 78.627 A 2.22 2.22 0 0 1 546 79.951 A 3.765 3.765 0 0 1 545.881 80.838 Q 545.664 81.728 545.049 82.904 A 18.553 18.553 0 0 1 544.65 83.626 Q 543.39 85.796 541.868 88.555 A 367.267 367.267 0 0 0 541.65 88.951 Q 540 91.951 538.65 95.026 Q 537.3 98.101 537.3 100.801 A 8.788 8.788 0 0 0 538.092 104.407 A 10.738 10.738 0 0 0 538.5 105.226 Q 539.7 107.401 542.4 107.401 A 7.702 7.702 0 0 0 545.029 106.879 Q 547.44 105.996 550.492 103.624 A 47.33 47.33 0 0 0 553.05 101.476 A 46.999 46.999 0 0 0 557.917 96.326 Q 560.22 93.522 562.541 90.009 A 112.156 112.156 0 0 0 566.4 83.701 Z" id="9" vector-effect="non-scaling-stroke"/>
		<path d="M 566.1 62.701 L 566.1 60.001 A 64 64 0 0 0 567.063 60.113 Q 567.491 60.16 567.963 60.207 A 118.326 118.326 0 0 0 568.95 60.301 A 161.902 161.902 0 0 0 570.596 60.441 Q 571.461 60.511 572.423 60.581 A 270.668 270.668 0 0 0 572.7 60.601 Q 575.85 52.501 579.45 44.926 Q 583.05 37.351 586.575 31.426 A 81.423 81.423 0 0 1 589.177 27.319 Q 590.476 25.406 591.732 23.84 A 37.882 37.882 0 0 1 593.325 21.976 A 21.456 21.456 0 0 1 594.783 20.517 Q 596.289 19.161 597.548 18.695 A 3.609 3.609 0 0 1 598.8 18.451 A 3.261 3.261 0 0 1 600.883 19.2 A 4.128 4.128 0 0 1 600.975 19.276 Q 601.904 20.061 601.948 21.595 A 5.389 5.389 0 0 1 601.95 21.751 Q 601.95 24.116 599.24 29.255 A 65.909 65.909 0 0 1 598.8 30.076 Q 596.634 34.046 593.76 39.044 A 751.675 751.675 0 0 1 591 43.801 A 201.962 201.962 0 0 0 584.748 55.37 A 237.638 237.638 0 0 0 582 61.051 L 584.775 61.051 L 587.55 61.051 A 353.357 353.357 0 0 0 592.631 61.013 A 411.243 411.243 0 0 0 597.975 60.901 Q 603.45 60.751 609 60.151 L 609 62.851 Q 601.298 63.691 595.099 64.139 A 266.035 266.035 0 0 1 594.225 64.201 Q 588.618 64.587 584.063 64.642 A 122.546 122.546 0 0 1 582.6 64.651 L 581.475 64.651 L 580.35 64.651 Q 576.9 72.601 574.5 81.001 A 61.969 61.969 0 0 0 572.312 92.591 A 54.192 54.192 0 0 0 572.1 97.351 A 33.757 33.757 0 0 0 572.238 100.518 Q 572.618 104.538 574.05 106.576 Q 575.856 109.145 579.848 109.336 A 13.707 13.707 0 0 0 580.5 109.351 A 18.97 18.97 0 0 0 589.18 107.168 Q 592.519 105.469 595.8 102.451 Q 603.3 95.551 609 83.701 L 610.95 85.201 Q 607.35 93.601 601.875 100.351 Q 596.4 107.101 589.8 111.001 A 28.046 28.046 0 0 1 581.643 114.294 A 25.065 25.065 0 0 1 576.15 114.901 A 17.799 17.799 0 0 1 572.24 114.497 Q 569.5 113.88 567.514 112.321 A 10.665 10.665 0 0 1 566.25 111.151 Q 562.8 107.401 562.8 100.051 Q 562.8 93.451 565.275 83.776 A 198.289 198.289 0 0 1 569.705 68.968 A 225.236 225.236 0 0 1 571.5 63.901 A 97.858 97.858 0 0 0 570.038 63.619 A 82.823 82.823 0 0 0 568.65 63.376 A 13.79 13.79 0 0 1 566.402 62.81 A 12.591 12.591 0 0 1 566.1 62.701 Z" id="10" vector-effect="non-scaling-stroke"/>
		<path d="M 608.85 62.701 L 608.85 60.001 A 64 64 0 0 0 609.813 60.113 Q 610.241 60.16 610.713 60.207 A 118.326 118.326 0 0 0 611.7 60.301 A 161.902 161.902 0 0 0 613.346 60.441 Q 614.211 60.511 615.173 60.581 A 270.668 270.668 0 0 0 615.45 60.601 Q 618.6 52.501 622.2 44.926 Q 625.8 37.351 629.325 31.426 A 81.423 81.423 0 0 1 631.927 27.319 Q 633.226 25.406 634.482 23.84 A 37.882 37.882 0 0 1 636.075 21.976 A 21.456 21.456 0 0 1 637.533 20.517 Q 639.039 19.161 640.298 18.695 A 3.609 3.609 0 0 1 641.55 18.451 A 3.261 3.261 0 0 1 643.633 19.2 A 4.128 4.128 0 0 1 643.725 19.276 Q 644.654 20.061 644.698 21.595 A 5.389 5.389 0 0 1 644.7 21.751 Q 644.7 24.116 641.99 29.255 A 65.909 65.909 0 0 1 641.55 30.076 Q 639.384 34.046 636.51 39.044 A 751.675 751.675 0 0 1 633.75 43.801 A 201.962 201.962 0 0 0 627.498 55.37 A 237.638 237.638 0 0 0 624.75 61.051 L 627.525 61.051 L 630.3 61.051 A 353.357 353.357 0 0 0 635.381 61.013 A 411.243 411.243 0 0 0 640.725 60.901 Q 646.2 60.751 651.75 60.151 L 651.75 62.851 Q 644.048 63.691 637.849 64.139 A 266.035 266.035 0 0 1 636.975 64.201 Q 631.368 64.587 626.813 64.642 A 122.546 122.546 0 0 1 625.35 64.651 L 624.225 64.651 L 623.1 64.651 Q 619.65 72.601 617.25 81.001 A 61.969 61.969 0 0 0 615.062 92.591 A 54.192 54.192 0 0 0 614.85 97.351 A 33.757 33.757 0 0 0 614.988 100.518 Q 615.368 104.538 616.8 106.576 Q 618.606 109.145 622.598 109.336 A 13.707 13.707 0 0 0 623.25 109.351 A 18.97 18.97 0 0 0 631.93 107.168 Q 635.269 105.469 638.55 102.451 Q 646.05 95.551 651.75 83.701 L 653.7 85.201 Q 650.1 93.601 644.625 100.351 Q 639.15 107.101 632.55 111.001 A 28.046 28.046 0 0 1 624.393 114.294 A 25.065 25.065 0 0 1 618.9 114.901 A 17.799 17.799 0 0 1 614.99 114.497 Q 612.25 113.88 610.264 112.321 A 10.665 10.665 0 0 1 609 111.151 Q 605.55 107.401 605.55 100.051 Q 605.55 93.451 608.025 83.776 A 198.289 198.289 0 0 1 612.455 68.968 A 225.236 225.236 0 0 1 614.25 63.901 A 97.858 97.858 0 0 0 612.788 63.619 A 82.823 82.823 0 0 0 611.4 63.376 A 13.79 13.79 0 0 1 609.152 62.81 A 12.591 12.591 0 0 1 608.85 62.701 Z" id="11" vector-effect="non-scaling-stroke"/>
		<path d="M 701.85 83.701 L 703.65 85.051 A 58.049 58.049 0 0 1 696.705 96.748 A 51.81 51.81 0 0 1 693.375 100.651 A 52.079 52.079 0 0 1 685.184 107.758 A 44.603 44.603 0 0 1 679.875 110.926 Q 672.6 114.601 665.1 114.601 Q 658.604 114.601 654.414 112.068 A 13.598 13.598 0 0 1 651.375 109.576 A 17.436 17.436 0 0 1 646.834 98.447 A 22.695 22.695 0 0 1 646.8 97.201 A 30.552 30.552 0 0 1 647.868 89.37 A 41.63 41.63 0 0 1 650.175 82.951 Q 653.55 75.451 659.175 68.851 A 54.06 54.06 0 0 1 667.441 60.946 A 47.525 47.525 0 0 1 671.55 58.126 Q 678.3 54.001 684.9 54.001 Q 688.35 54.001 691.275 55.801 A 5.367 5.367 0 0 1 693.374 58.312 Q 694.2 60.202 694.2 63.151 A 18.796 18.796 0 0 1 691.084 73.482 A 22.77 22.77 0 0 1 690.825 73.876 A 33.468 33.468 0 0 1 684.581 80.78 A 39.997 39.997 0 0 1 681.975 82.801 Q 676.5 86.701 669.975 89.176 A 50.525 50.525 0 0 1 659.623 91.93 A 45.717 45.717 0 0 1 657 92.251 A 35.65 35.65 0 0 0 656.684 94.067 A 29.812 29.812 0 0 0 656.55 95.101 Q 656.4 96.451 656.4 97.651 A 19.745 19.745 0 0 0 656.925 102.151 Q 657.45 104.401 658.8 106.276 A 8.68 8.68 0 0 0 661.637 108.778 A 10.652 10.652 0 0 0 662.475 109.201 A 10.947 10.947 0 0 0 664.813 109.937 Q 665.927 110.162 667.215 110.226 A 21.026 21.026 0 0 0 668.25 110.251 A 23.856 23.856 0 0 0 677.841 108.184 A 30.091 30.091 0 0 0 681 106.576 A 47.116 47.116 0 0 0 689.944 99.755 A 55.694 55.694 0 0 0 692.7 96.901 Q 698.1 90.901 701.85 83.701 Z M 657.75 89.401 A 51.036 51.036 0 0 0 661.424 88.005 Q 663.991 86.923 666.9 85.426 Q 672 82.801 676.725 79.201 A 38.832 38.832 0 0 0 682.159 74.217 A 33.158 33.158 0 0 0 684.525 71.251 A 17.218 17.218 0 0 0 686.855 66.717 A 14.615 14.615 0 0 0 687.6 62.101 A 7.315 7.315 0 0 0 687.541 61.143 Q 687.477 60.656 687.342 60.258 A 3.023 3.023 0 0 0 687 59.551 Q 686.4 58.651 684.45 58.651 A 10.79 10.79 0 0 0 680.857 59.302 Q 679.442 59.8 677.965 60.679 A 21.745 21.745 0 0 0 676.8 61.426 A 34.649 34.649 0 0 0 672.339 65.093 A 45.356 45.356 0 0 0 669 68.701 A 63.834 63.834 0 0 0 662.262 78.58 A 66.895 66.895 0 0 0 662.25 78.601 A 51.92 51.92 0 0 0 658.834 86.026 A 45.064 45.064 0 0 0 657.75 89.401 Z" id="12" vector-effect="non-scaling-stroke"/>
		<path d="M 700.35 91.501 L 699 88.951 A 90.827 90.827 0 0 0 700.13 86.776 Q 701.944 83.176 704.475 77.551 A 171.97 171.97 0 0 0 707.831 69.526 A 235.747 235.747 0 0 0 711.15 60.451 A 4.905 4.905 0 0 1 709.65 56.916 A 5.844 5.844 0 0 1 709.65 56.851 A 12.974 12.974 0 0 1 710.055 53.527 A 9.637 9.637 0 0 1 712.2 49.501 A 25.426 25.426 0 0 1 713.18 48.461 Q 714.617 47.027 715.516 46.729 A 1.389 1.389 0 0 1 715.95 46.651 Q 717.6 46.651 717.825 48.076 A 29.456 29.456 0 0 1 717.923 48.746 Q 718.02 49.463 718.043 49.96 A 6.309 6.309 0 0 1 718.05 50.251 A 2.423 2.423 0 0 1 718.011 50.647 Q 717.893 51.337 717.428 52.628 A 35.315 35.315 0 0 1 717.225 53.176 A 53.27 53.27 0 0 0 716.945 53.931 Q 716.4 55.435 716.4 55.801 Q 716.4 57.647 718.197 59.203 A 8.969 8.969 0 0 0 718.725 59.626 A 490.584 490.584 0 0 0 720.889 61.221 Q 721.994 62.032 723.22 62.923 A 822.108 822.108 0 0 0 724.05 63.526 Q 727.05 65.701 729.375 68.776 Q 731.671 71.812 731.7 76.531 A 19.69 19.69 0 0 1 731.7 76.651 A 23.347 23.347 0 0 1 730.645 83.485 A 28.125 28.125 0 0 1 729.825 85.801 Q 727.95 90.451 726.075 94.651 A 27.083 27.083 0 0 0 725.007 97.414 Q 724.553 98.831 724.355 100.105 A 12.309 12.309 0 0 0 724.2 102.001 Q 724.2 104.46 725.32 105.426 A 2.335 2.335 0 0 0 725.55 105.601 A 5.368 5.368 0 0 0 728.068 106.472 A 6.75 6.75 0 0 0 728.7 106.501 A 12.818 12.818 0 0 0 732.938 105.749 A 17.983 17.983 0 0 0 736.125 104.251 A 38.18 38.18 0 0 0 741.278 100.59 A 45.742 45.742 0 0 0 743.55 98.551 Q 747.15 95.101 750 91.276 Q 752.374 88.089 753.707 85.268 A 23.022 23.022 0 0 0 754.2 84.151 L 756.15 85.651 Q 753.3 91.951 748.35 98.026 A 48.482 48.482 0 0 1 740.383 105.845 A 43.419 43.419 0 0 1 737.325 108.001 A 25.292 25.292 0 0 1 730.96 110.986 A 21.241 21.241 0 0 1 724.8 111.901 A 15.58 15.58 0 0 1 721.551 111.582 Q 718.695 110.973 716.775 109.201 Q 713.85 106.501 713.85 102.151 A 21.707 21.707 0 0 1 714.59 96.648 A 28.743 28.743 0 0 1 715.95 92.701 Q 718.05 87.751 720.075 82.876 Q 721.685 79 722.015 75.741 A 16.28 16.28 0 0 0 722.1 74.101 A 13.149 13.149 0 0 0 721.836 71.374 Q 721.244 68.583 719.325 66.976 Q 716.55 64.651 713.7 62.701 A 270.856 270.856 0 0 1 707.896 76.488 A 241.053 241.053 0 0 1 706.5 79.501 Q 703.409 86.053 701.235 89.956 A 66.628 66.628 0 0 1 700.35 91.501 Z" id="13" vector-effect="non-scaling-stroke"/>
	</g>
</svg>